<svg viewBox="0 0 64 64" xml:space="preserve" xmlns="http://www.w3.org/2000/svg" enable-background="new 0 0 64 64"><path d="M-27.5-432.3h-30.3c-.5 0-.9-.2-1.1-.6-.3-.4-.3-.9-.1-1.3l2.6-6.6-2.6-24.6h-8.4v-2.8h9.6c.7 0 1.3.5 1.4 1.2l2.8 26.1c0 .2 0 .4-.1.7l-2 5h28.2v2.9" transform="translate(76 478)" fill="#ffffff" class="fill-134563"></path><path d="m-54.7-439.2-.6-2.7 31.9-6.6v-11.3h-33v-2.8H-22c.8 0 1.4.6 1.4 1.4v13.8c0 .7-.5 1.2-1.1 1.3l-33 6.9M-26.1-424c-3 0-5.5-2.5-5.5-5.5s2.5-5.5 5.5-5.5 5.5 2.5 5.5 5.5-2.5 5.5-5.5 5.5zm0-8.3c-1.5 0-2.8 1.2-2.8 2.8s1.2 2.8 2.8 2.8 2.8-1.2 2.8-2.8-1.3-2.8-2.8-2.8zM-59.1-424c-3 0-5.5-2.5-5.5-5.5s2.5-5.5 5.5-5.5 5.5 2.5 5.5 5.5-2.5 5.5-5.5 5.5zm0-8.3c-1.5 0-2.8 1.2-2.8 2.8s1.2 2.8 2.8 2.8 2.8-1.2 2.8-2.8-1.3-2.8-2.8-2.8z" transform="translate(76 478)" fill="#ffffff" class="fill-134563"></path></svg>